<svg width="66" height="41" fill="none" xmlns="http://www.w3.org/2000/svg"><path fill-rule="evenodd" clip-rule="evenodd" d="M41.669 6.513c.006 1.107-.585 3.58-4.465 7.991v-4.396a3.716 3.716 0 0 1-2.957-3.632 3.714 3.714 0 0 1 3.712-3.709 3.714 3.714 0 0 1 3.71 3.71v.036zm-10.8 10.02l1.038-3.124a1.432 1.432 0 0 1-.98-1.356 1.432 1.432 0 0 1 2.862 0 1.43 1.43 0 0 1-.98 1.356l1.039 3.123h-2.98zm-3.357-6.425v4.396c-3.88-4.41-4.47-6.884-4.465-7.99v-.038a3.714 3.714 0 0 1 3.711-3.709 3.714 3.714 0 0 1 3.711 3.71 3.716 3.716 0 0 1-2.957 3.631zm14.93-8.148A6.326 6.326 0 0 0 37.96.113a6.369 6.369 0 0 0-5.6 3.338 6.365 6.365 0 0 0-5.6-3.338 6.327 6.327 0 0 0-4.485 1.847 6.317 6.317 0 0 0-1.881 4.457v.093c-.024 6.48 11.054 15.565 11.526 15.95l.437.355.437-.355c.472-.384 11.551-9.47 11.53-15.949l-.001-.092a6.325 6.325 0 0 0-1.882-4.458z" fill="#E8553A"/><path fill-rule="evenodd" clip-rule="evenodd" d="M.366 36.018c0-2.838 1.08-4.258 3.24-4.258.922 0 1.783.104 2.583.311l-.185.876c-.692-.169-1.491-.253-2.398-.253-1.491 0-2.237 1.108-2.237 3.324 0 2.217.746 3.325 2.237 3.325.907 0 1.706-.073 2.398-.22l.185.848c-.8.204-1.66.305-2.583.305-2.16 0-3.24-1.419-3.24-4.258zm8.129.524v3.734H7.49V31.76h1.004v3.78h3.977v-3.78h1.004v8.516h-1.004v-3.734H8.495zm10.849.473l-1.372-4.137-1.372 4.137h2.744zm-3.032.887l-.784 2.374h-1.026l2.778-8.182c.085-.222.204-.334.358-.334h.646c.168 0 .295.112.38.334l2.779 8.182h-1.027l-.784-2.374h-3.32zm9.085-1.993c1.4 0 2.099-.538 2.099-1.614 0-1.06-.7-1.59-2.099-1.59h-1.602v3.204h1.602zm-2.606 4.39v-8.54h2.606c2.068 0 3.102.847 3.102 2.54 0 1.26-.565 2.057-1.695 2.387l1.857 3.613h-1.13l-1.776-3.446h-1.96V40.3H22.79zm11.265.001c-.338 0-.564-.122-.68-.364l-2.214-6.874v7.237H30.16v-8.263c0-.184.058-.276.173-.276h1.003c.246 0 .411.096.496.288l2.295 7.344 2.283-7.344c.084-.192.25-.288.495-.288h1.003c.116 0 .174.092.174.276v8.263h-1.004v-7.237l-2.213 6.874c-.116.242-.343.363-.68.363h-.128zm5.523-1.833v-4.898c.015-1.206.638-1.81 1.868-1.81h3.47v.888h-3.47c-.577 0-.865.3-.865.9v2.074h3.62v.944h-3.62v1.96c0 .576.288.864.865.864h3.47v.887h-3.47c-1.23 0-1.853-.603-1.868-1.81zm9.201-2.558c1.399 0 2.098-.538 2.098-1.614 0-1.06-.7-1.59-2.098-1.59h-1.603v3.204h1.603zm-2.606 4.39v-8.54h2.606c2.067 0 3.101.847 3.101 2.54 0 1.26-.565 2.057-1.695 2.387l1.857 3.613h-1.13l-1.776-3.446h-1.96V40.3h-1.003zm8.371-8.539v6.613c0 .64.295.958.887.958h3.217v.945h-3.217c-1.26 0-1.89-.635-1.89-1.904V31.76h1.003zm4.923 0l2.006 3.849.162.415.16-.415 2.007-3.849h1.176l-2.848 5.278v3.238h-1.003v-3.238l-2.847-5.278h1.187z" fill="#6A3536"/></svg>