<svg width="10" height="10" fill="none" xmlns="http://www.w3.org/2000/svg"><path d="M5.483.314l1.128 2.39a.54.54 0 0 0 .405.308l2.522.383c.442.067.618.635.299.96l-1.825 1.86a.58.58 0 0 0-.155.499l.43 2.626c.076.46-.386.811-.78.594L5.25 8.694a.518.518 0 0 0-.502 0l-2.255 1.24c-.395.217-.857-.134-.782-.594l.431-2.626a.58.58 0 0 0-.155-.499L.163 4.355c-.32-.326-.143-.893.299-.96l2.522-.383a.54.54 0 0 0 .405-.308L4.517.314a.528.528 0 0 1 .966 0z" fill="url(#paint0_linear)"/><defs><linearGradient id="paint0_linear" x1="0" y1="0" x2="0" y2="10" gradientUnits="userSpaceOnUse"><stop stop-color="#F1F1F1"/><stop offset="1" stop-color="#F8C41C"/></linearGradient></defs></svg>