<svg width="64" height="40" fill="none" xmlns="http://www.w3.org/2000/svg"><path fill-rule="evenodd" clip-rule="evenodd" d="M5.884 31.2L3.6 38.306 1.316 31.2H0l2.745 8.377c.129.35.328.423.473.423h.741c.155 0 .367-.074.498-.428L7.2 31.2H5.884zm6.078 5.26H9.638l1.162-3.567 1.162 3.568zm-.856-5.26h-.635c-.146 0-.347.073-.479.428L7.2 40h1.295l.77-2.376h3.07l.77 2.376H14.4l-2.794-8.377c-.13-.35-.344-.423-.5-.423zm6.224 6.758V31.2H16v6.756c0 1.357.71 2.044 2.11 2.044h3.49v-1.22h-3.49c-.533 0-.78-.262-.78-.822zm5.07-4.81v4.905c.017 1.292.69 1.947 2 1.947H28v-1.163h-3.6c-.502 0-.725-.225-.725-.728v-1.824h3.612v-1.22h-3.612v-1.94c0-.527.223-.762.726-.762H28V31.2h-3.6c-1.31 0-1.983.655-2 1.948zm12.33 4.796l-3.323-6.374c-.074-.169-.24-.37-.617-.37h-.882c-.093 0-.308.04-.308.414V40h1.27v-6.78l3.301 6.332c.137.293.39.448.73.448h.79c.073 0 .309-.028.309-.392V31.2h-1.27v6.744zm2.07-5.581h2.68V40h1.242v-7.637H43.2V31.2h-6.4v1.163z" fill="#274655"/><mask id="a" maskUnits="userSpaceOnUse" x="0" y="0" width="64" height="40"><path fill-rule="evenodd" clip-rule="evenodd" d="M0 40h64V0H0v40z" fill="#fff"/></mask><g mask="url(#a)" fill-rule="evenodd" clip-rule="evenodd"><path d="M44.8 40h1.6v-8.8h-1.6V40zm11.697-8.8h-.98c-.369 0-.533.2-.611.384l-2.1 6.912-2.118-6.927c-.072-.168-.237-.369-.606-.369h-.98c-.09 0-.302.04-.302.412V40h1.247v-6.491l1.906 6.05c.136.293.4.441.785.441h.124c.384 0 .649-.148.792-.458l1.899-6.033V40H56.8v-8.388c0-.372-.212-.412-.303-.412zm3.903 1.163H64V31.2h-3.6c-1.31 0-1.984.655-2 1.948v4.905c.016 1.292.69 1.947 2 1.947H64v-1.163h-3.6c-.502 0-.725-.225-.725-.728v-1.824h3.612v-1.22h-3.612v-1.94c0-.527.224-.762.725-.762z" fill="#274655"/><path d="M40.537 6.54c.006 1.131-.587 3.66-4.478 8.167v-4.492c-1.69-.357-2.964-1.886-2.964-3.712 0-2.09 1.668-3.79 3.72-3.79 2.053 0 3.722 1.7 3.722 3.79v.037zm-10.83 10.24l1.04-3.192a1.462 1.462 0 0 1-.982-1.386c0-.806.643-1.461 1.435-1.461.791 0 1.435.655 1.435 1.461a1.46 1.46 0 0 1-.983 1.386l1.041 3.192h-2.987zm-3.367-6.565v4.492c-3.89-4.507-4.483-7.036-4.477-8.167v-.037c0-2.09 1.669-3.79 3.721-3.79s3.721 1.7 3.721 3.79c0 1.826-1.274 3.355-2.965 3.712zM43.2 6.444a6.527 6.527 0 0 0-1.887-4.557A6.285 6.285 0 0 0 36.816 0a6.316 6.316 0 0 0-4.159 1.569A6.51 6.51 0 0 0 31.2 3.41a6.5 6.5 0 0 0-1.458-1.842A6.312 6.312 0 0 0 25.584 0c-1.696 0-3.293.67-4.497 1.887a6.516 6.516 0 0 0-1.886 4.555v.096c-.024 6.62 11.087 15.906 11.56 16.299l.439.363.438-.363c.473-.393 11.584-9.678 11.562-16.3v-.093z" fill="#E8573A"/></g></svg>