<svg width="66" height="41" viewBox="0 0 66 41" fill="none" xmlns="http://www.w3.org/2000/svg">
<path fill-rule="evenodd" clip-rule="evenodd" d="M41.6688 6.51311C41.6746 7.61974 41.0835 10.0937 37.2037 14.5044V10.1083C35.5179 9.7591 34.2472 8.26341 34.2472 6.4763C34.2472 4.43093 35.9114 2.76733 37.9585 2.76733C40.0043 2.76733 41.6691 4.43093 41.6691 6.4763C41.6691 6.48847 41.6682 6.50063 41.6682 6.5128L41.6688 6.51311ZM30.8686 16.5325L31.9071 13.4091C31.3388 13.2196 30.9274 12.6842 30.9274 12.0527C30.9274 11.2645 31.5686 10.623 32.3581 10.623C33.1467 10.623 33.7889 11.2645 33.7889 12.0527C33.7889 12.6842 33.3777 13.2196 32.8089 13.4091L33.8476 16.5325H30.8686ZM27.5123 10.1083V14.5044C23.6324 10.0937 23.0414 7.61974 23.0475 6.51311L23.0478 6.5128C23.0478 6.50063 23.0471 6.48847 23.0471 6.4763C23.0471 4.43093 24.7116 2.76733 26.7581 2.76733C28.8039 2.76733 30.469 4.43093 30.469 6.4763C30.469 8.26341 29.1981 9.7591 27.5123 10.1083ZM42.4421 1.95971C41.2421 0.768808 39.6494 0.113281 37.9585 0.113281C36.4367 0.113281 34.9643 0.658387 33.8114 1.64822C33.217 2.15925 32.7258 2.77159 32.3581 3.45084C31.9905 2.77159 31.4992 2.15925 30.9042 1.64822C29.752 0.658387 28.2795 0.113281 26.7581 0.113281C25.0668 0.113281 23.4745 0.768808 22.2741 1.95971C21.0747 3.14939 20.4066 4.73482 20.3929 6.41668C20.3929 6.41668 20.3917 6.4985 20.3923 6.51037C20.3698 12.9893 31.449 22.0748 31.9211 22.4587L32.3581 22.8143L32.7952 22.4587C33.2672 22.0748 44.3464 12.9896 44.3242 6.51037C44.3245 6.49911 44.3236 6.4182 44.3236 6.4182C44.3081 4.73178 43.64 3.14848 42.4421 1.95971Z" fill="#E8553A"/>
<path fill-rule="evenodd" clip-rule="evenodd" d="M0.366146 36.018C0.366146 33.1797 1.44598 31.76 3.60595 31.76C4.52843 31.76 5.38913 31.8637 6.18866 32.0712L6.00422 32.947C5.31244 32.7781 4.51291 32.6936 3.60595 32.6936C2.11463 32.6936 1.36928 33.8017 1.36928 36.018C1.36928 38.2347 2.11463 39.3428 3.60595 39.3428C4.51291 39.3428 5.31244 39.2698 6.00422 39.1238L6.18866 39.9707C5.38913 40.1745 4.52843 40.2761 3.60595 40.2761C1.44598 40.2761 0.366146 38.857 0.366146 36.018Z" fill="#6A3536"/>
<path fill-rule="evenodd" clip-rule="evenodd" d="M8.49456 36.5422V40.2758H7.49142V31.7598H8.49456V35.5396H12.4724V31.7598H13.4755V40.2758H12.4724V36.5422H8.49456Z" fill="#6A3536"/>
<path fill-rule="evenodd" clip-rule="evenodd" d="M19.3442 37.0149L17.9722 32.8776L16.6001 37.0149H19.3442ZM16.3119 37.9022L15.5276 40.2761H14.5017L17.2804 32.094C17.3647 31.8716 17.4843 31.76 17.6377 31.76H18.2838C18.4524 31.76 18.579 31.8716 18.6642 32.094L21.4427 40.2761H20.4164L19.6324 37.9022H16.3119Z" fill="#6A3536"/>
<path fill-rule="evenodd" clip-rule="evenodd" d="M25.3973 35.9086C26.7963 35.9086 27.496 35.3708 27.496 34.2952C27.496 33.2351 26.7963 32.7049 25.3973 32.7049H23.7945V35.9086H25.3973ZM22.7914 40.2993V31.7598H25.3973C27.465 31.7598 28.4989 32.6063 28.4989 34.2982C28.4989 35.5597 27.934 36.3561 26.804 36.6864L28.6605 40.2993H27.5304L25.7549 36.8534H25.3973H23.7945V40.2993H22.7914Z" fill="#6A3536"/>
<path fill-rule="evenodd" clip-rule="evenodd" d="M34.0564 40.2992C33.7182 40.2992 33.4915 40.1784 33.3761 39.9363L31.1623 33.0619V40.2992H30.1592V32.0359C30.1592 31.8519 30.217 31.76 30.3323 31.76H31.3355C31.5811 31.76 31.7463 31.8558 31.831 32.0478L34.1258 39.3918L36.4087 32.0478C36.493 31.8558 36.6582 31.76 36.9042 31.76H37.9073C38.0226 31.76 38.0805 31.8519 38.0805 32.0359V40.2992H37.0773V33.0619L34.8635 39.9363C34.7481 40.1784 34.5214 40.2992 34.1833 40.2992H34.0564Z" fill="#6A3536"/>
<path fill-rule="evenodd" clip-rule="evenodd" d="M39.5789 38.4668V33.5691C39.5942 32.3633 40.2169 31.7598 41.4467 31.7598H44.9172V32.6471H41.4467C40.8703 32.6471 40.5821 32.947 40.5821 33.5463V35.6205H44.2023V36.5653H40.5821V38.5243C40.5821 39.1007 40.8703 39.3885 41.4467 39.3885H44.9172V40.2758H41.4467C40.2169 40.2758 39.5942 39.6729 39.5789 38.4668Z" fill="#6A3536"/>
<path fill-rule="evenodd" clip-rule="evenodd" d="M48.7796 35.9086C50.1787 35.9086 50.8784 35.3708 50.8784 34.2952C50.8784 33.2351 50.1787 32.7049 48.7796 32.7049H47.1769V35.9086H48.7796ZM46.1737 40.2993V31.7598H48.7796C50.8473 31.7598 51.8812 32.6063 51.8812 34.2982C51.8812 35.5597 51.3163 36.3561 50.1863 36.6864L52.0428 40.2993H50.9128L49.1372 36.8534H48.7796H47.1769V40.2993H46.1737Z" fill="#6A3536"/>
<path fill-rule="evenodd" clip-rule="evenodd" d="M54.5447 31.76V38.3734C54.5447 39.0122 54.8405 39.3313 55.4325 39.3313H58.6491V40.2761H55.4325C54.1716 40.2761 53.5416 39.6415 53.5416 38.3722V31.76H54.5447Z" fill="#6A3536"/>
<path fill-rule="evenodd" clip-rule="evenodd" d="M59.4681 31.76L61.4743 35.6089L61.6356 36.0241L61.7969 35.6089L63.8032 31.76H64.9792L62.1314 37.0383V40.2761H61.1283V37.0383L58.2805 31.76H59.4681Z" fill="#6A3536"/>
</svg>
