<svg width="125" height="36" viewBox="0 0 125 36" fill="none" xmlns="http://www.w3.org/2000/svg">
<path fill-rule="evenodd" clip-rule="evenodd" d="M4.22588 0H29.5811C31.9159 0 33.807 1.89293 33.807 4.23V25.38C33.807 27.7171 31.9159 29.61 29.5811 29.61H21.1294L16.9035 33.84L12.5001 29.61H4.22588C1.89108 29.61 0 27.7171 0 25.38V4.23C0 1.89293 1.89108 0 4.22588 0ZM22.5795 17.6064L23.9982 16.0685C25.5679 14.3687 25.5679 11.6148 23.9982 9.9149C22.4306 8.21504 19.889 8.21504 18.3214 9.9149L16.9027 11.4528L15.4841 9.9149C13.9165 8.21504 11.3748 8.21504 9.80726 9.9149C8.23968 11.6148 8.23968 14.3687 9.80726 16.0685L11.2259 17.6064L16.9027 23.76L22.5795 17.6064Z" fill="#D0021B"/>
<g filter="url(#filter0_d)">
<path fill-rule="evenodd" clip-rule="evenodd" d="M47.2363 20.8799V5.55828H41.4417V1.39956H58.2243V5.55828H52.4297V20.8799H47.2363ZM64.3743 19.9086C62.8983 19.0969 61.764 17.9341 60.9713 16.4202C60.1786 14.9063 59.7823 13.137 59.7823 11.1124C59.7823 9.08771 60.1832 7.32757 60.985 5.83188C61.7868 4.33619 62.9211 3.18252 64.388 2.37084C65.8549 1.55916 67.5814 1.15332 69.5676 1.15332C71.5539 1.15332 73.2804 1.55916 74.7473 2.37084C76.2142 3.18252 77.3394 4.33619 78.123 5.83188C78.9065 7.32757 79.2983 9.08771 79.2983 11.1124C79.2983 13.137 78.9065 14.9063 78.123 16.4202C77.3394 17.9341 76.2142 19.0969 74.7473 19.9086C73.2804 20.7203 71.5539 21.1261 69.5676 21.1261C67.5814 21.1261 65.8503 20.7203 64.3743 19.9086ZM72.998 15.6541C73.8271 14.6144 74.2416 13.1005 74.2416 11.1124C74.2416 9.14243 73.8271 7.64221 72.998 6.61164C72.1689 5.58108 71.0254 5.0658 69.5676 5.0658C68.1099 5.0658 66.971 5.57652 66.151 6.59796C65.331 7.61941 64.921 9.12419 64.921 11.1124C64.921 13.1188 65.331 14.6372 66.151 15.6678C66.971 16.6984 68.1099 17.2136 69.5676 17.2136C71.0254 17.2136 72.1689 16.6938 72.998 15.6541ZM82.305 1.39956H91.571C93.7941 1.39956 95.5161 1.93307 96.737 3.00012C97.9579 4.06717 98.5683 5.51267 98.5683 7.33668C98.5683 9.14245 97.9488 10.5834 96.7097 11.6596C95.4705 12.7357 93.7577 13.2738 91.571 13.2738H87.4437V20.8799H82.305V1.39956ZM90.8876 9.4434C92.8192 9.4434 93.785 8.75941 93.785 7.3914C93.785 6.69828 93.5527 6.17388 93.088 5.8182C92.6233 5.46252 91.8899 5.28468 90.8876 5.28468H87.4436V9.4434H90.8876ZM119.943 8.8962C120.891 9.42516 121.629 10.1639 122.157 11.1124C122.685 12.0608 122.95 13.1552 122.95 14.3956C122.95 15.7453 122.626 16.9264 121.979 17.9387C121.332 18.951 120.412 19.7308 119.219 20.278C118.025 20.8252 116.636 21.0988 115.05 21.0988C113.793 21.0988 112.545 20.9072 111.306 20.5242C110.067 20.1412 109.073 19.6396 108.326 19.0194L109.912 15.3805C111.588 16.5479 113.328 17.1316 115.132 17.1316C116.153 17.1316 116.909 16.9264 117.401 16.516C117.893 16.1056 118.139 15.4717 118.139 14.6144C118.139 13.7754 117.879 13.1324 117.36 12.6856C116.841 12.2387 116.116 12.0152 115.187 12.0152C114.677 12.0152 114.126 12.1019 113.533 12.2752C112.941 12.4484 112.39 12.6719 111.88 12.9455H109.064V1.39956H121.911V5.28468H114.039V8.6226C114.786 8.27604 115.679 8.10276 116.718 8.10276C117.92 8.10276 118.995 8.36724 119.943 8.8962Z" fill="white"/>
</g>
<path fill-rule="evenodd" clip-rule="evenodd" d="M42.4038 33.84V27.0759H44.7004C45.3792 27.0759 45.8959 27.2039 46.2505 27.4598C46.6052 27.7158 46.7825 28.089 46.7825 28.5796C46.7825 29.3931 46.2422 29.9689 45.1616 30.3071C46.4248 30.6149 47.0564 31.2349 47.0564 32.1673C47.0564 32.7066 46.8715 33.1202 46.5017 33.4081C46.1318 33.696 45.6014 33.84 44.9105 33.84H42.4038ZM43.7279 29.8912H44.0612C44.4569 29.8912 44.7712 29.7937 45.0041 29.5987C45.2369 29.4037 45.3534 29.1387 45.3534 28.8035C45.3534 28.4927 45.2598 28.2817 45.0726 28.1705C44.8854 28.0593 44.5315 28.0037 44.011 28.0037H43.7279V29.8912ZM43.7279 32.8802H44.0293C44.6198 32.8802 45.0269 32.817 45.2506 32.6906C45.4743 32.5641 45.5862 32.3333 45.5862 31.9982C45.5862 31.6539 45.4363 31.3675 45.1365 31.1389C44.8366 30.9104 44.4584 30.7962 44.0019 30.7962H43.7279V32.8802ZM52.3756 33.6709C51.7334 33.8598 51.1246 33.9542 50.5493 33.9542C49.7122 33.9542 49.0517 33.7166 48.5677 33.2413C48.0837 32.766 47.8417 32.117 47.8417 31.2943C47.8417 30.5174 48.0632 29.892 48.5061 29.4182C48.949 28.9444 49.5342 28.7075 50.2617 28.7075C50.9952 28.7075 51.531 28.9391 51.8688 29.4022C52.2067 29.8653 52.3756 30.5981 52.3756 31.6005H49.2663C49.3576 32.5573 49.8827 33.0356 50.8415 33.0356C51.2951 33.0356 51.8064 32.9305 52.3756 32.7203V33.6709ZM49.248 30.8373H51.047C51.047 29.9811 50.7715 29.553 50.2206 29.553C49.6605 29.553 49.3363 29.9811 49.248 30.8373ZM53.6404 33.68V32.6883C54.31 32.9686 54.8823 33.1087 55.3571 33.1087C55.9111 33.1087 56.1881 32.9198 56.1881 32.542C56.1881 32.2983 55.9598 32.085 55.5033 31.9022L55.0467 31.7194C54.5505 31.5183 54.1959 31.3019 53.9828 31.0704C53.7697 30.8388 53.6632 30.5524 53.6632 30.2112C53.6632 29.7358 53.8443 29.3664 54.2066 29.1029C54.5688 28.8393 55.0756 28.7075 55.727 28.7075C56.1349 28.7075 56.6204 28.7669 57.1835 28.8858V29.8364C56.6417 29.6475 56.1927 29.553 55.8366 29.553C55.2765 29.553 54.9964 29.7267 54.9964 30.0741C54.9964 30.3026 55.2034 30.496 55.6174 30.6545L56.0101 30.8053C56.5975 31.0277 57.0062 31.2532 57.236 31.4817C57.4658 31.7102 57.5807 32.0042 57.5807 32.3638C57.5807 32.836 57.3852 33.2192 56.994 33.5132C56.6029 33.8072 56.0938 33.9542 55.4667 33.9542C54.864 33.9542 54.2553 33.8628 53.6404 33.68ZM61.6443 33.8126C61.3217 33.907 61.0675 33.9542 60.8818 33.9542C59.7099 33.9542 59.124 33.4058 59.124 32.3089V29.6673H58.5624V28.8218H59.124V27.9763L60.4755 27.8209V28.8218H61.5485V29.6673H60.4755V32.1307C60.4755 32.7462 60.7266 33.0539 61.2288 33.0539C61.3445 33.0539 61.483 33.0326 61.6443 32.9899V33.8126ZM65.9317 33.84V27.0759H68.8401C69.8872 27.0759 70.6893 27.354 71.2463 27.91C71.8034 28.4661 72.0819 29.2681 72.0819 30.3163C72.0819 31.4314 71.7866 32.2975 71.1961 32.9145C70.6056 33.5315 69.7792 33.84 68.7168 33.84H65.9317ZM67.338 32.8802H68.3881C69.1278 32.8802 69.6795 32.6753 70.0432 32.2655C70.407 31.8557 70.5889 31.2334 70.5889 30.3985C70.5889 29.7526 70.4427 29.2148 70.1505 28.7852C69.9496 28.4897 69.7076 28.2855 69.4246 28.1728C69.1415 28.0601 68.729 28.0037 68.1872 28.0037H67.338V32.8802ZM75.8031 33.3007C75.3526 33.7364 74.8701 33.9542 74.3557 33.9542C73.9174 33.9542 73.5612 33.8202 73.2873 33.5521C73.0133 33.2839 72.8763 32.9366 72.8763 32.51C72.8763 31.9555 73.0978 31.5282 73.5407 31.2281C73.9836 30.9279 74.6175 30.7779 75.4424 30.7779H75.8031V30.3208C75.8031 29.7998 75.5063 29.5393 74.9127 29.5393C74.3861 29.5393 73.8534 29.6886 73.3147 29.9872V29.0549C73.9265 28.8233 74.5322 28.7075 75.1319 28.7075C76.4438 28.7075 77.0998 29.2301 77.0998 30.2751V32.4963C77.0998 32.8894 77.2261 33.0859 77.4787 33.0859C77.5244 33.0859 77.5837 33.0798 77.6568 33.0676L77.6888 33.8263C77.4026 33.9116 77.15 33.9542 76.9308 33.9542C76.3768 33.9542 76.0207 33.7364 75.8624 33.3007H75.8031ZM75.8031 32.574V31.5548H75.4834C74.6098 31.5548 74.173 31.8291 74.173 32.3775C74.173 32.5634 74.2362 32.7195 74.3625 32.8459C74.4889 32.9724 74.6449 33.0356 74.8305 33.0356C75.1471 33.0356 75.4713 32.8817 75.8031 32.574ZM81.4282 33.8126C81.1055 33.907 80.8514 33.9542 80.6657 33.9542C79.4938 33.9542 78.9078 33.4058 78.9078 32.3089V29.6673H78.3462V28.8218H78.9078V27.9763L80.2593 27.8209V28.8218H81.3323V29.6673H80.2593V32.1307C80.2593 32.7462 80.5105 33.0539 81.0127 33.0539C81.1284 33.0539 81.2669 33.0326 81.4282 32.9899V33.8126ZM82.6336 33.84V28.8218H83.9851V33.84H82.6336ZM82.6336 27.9763V26.8474H83.9851V27.9763H82.6336ZM85.6744 33.84V28.8218H87.0259V29.7678C87.4673 29.061 88.0365 28.7075 88.7336 28.7075C89.181 28.7075 89.5341 28.8492 89.7929 29.1326C90.0516 29.4159 90.1809 29.8029 90.1809 30.2934V33.84H88.8295V30.6271C88.8295 30.0573 88.6407 29.7724 88.2633 29.7724C87.8341 29.7724 87.4216 30.0756 87.0259 30.6819V33.84H85.6744ZM91.8521 35.3985L91.9616 34.4158C92.5187 34.6718 93.0498 34.7998 93.5551 34.7998C94.0543 34.7998 94.415 34.6931 94.6372 34.4798C94.8594 34.2666 94.9705 33.9207 94.9705 33.4424V32.7568C94.6418 33.4789 94.0985 33.84 93.3405 33.84C92.7439 33.84 92.2706 33.6168 91.9205 33.1704C91.5705 32.7241 91.3955 32.12 91.3955 31.3583C91.3955 30.557 91.5918 29.9149 91.9845 29.4319C92.3771 28.949 92.8992 28.7075 93.5506 28.7075C94.0619 28.7075 94.5353 28.9147 94.9705 29.3291L95.1121 28.8218H96.3266V32.6517C96.3266 33.4165 96.2802 33.968 96.1873 34.3062C96.0945 34.6444 95.9141 34.9323 95.6463 35.17C95.1958 35.56 94.5611 35.755 93.7423 35.755C93.1609 35.755 92.5308 35.6361 91.8521 35.3985ZM94.9705 31.9707V30.1198C94.6448 29.7511 94.3039 29.5667 93.9478 29.5667C93.6069 29.5667 93.336 29.7221 93.1351 30.0329C92.9342 30.3437 92.8337 30.7611 92.8337 31.2852C92.8337 32.2663 93.1488 32.7568 93.7788 32.7568C94.2141 32.7568 94.6113 32.4948 94.9705 31.9707ZM100.687 33.7806V32.6197C101.414 32.9244 102.037 33.0767 102.554 33.0767C102.917 33.0767 103.202 32.996 103.411 32.8345C103.619 32.673 103.723 32.4537 103.723 32.1764C103.723 31.957 103.658 31.7719 103.527 31.6211C103.396 31.4703 103.148 31.2913 102.783 31.0841L102.331 30.8327C101.725 30.4915 101.297 30.1647 101.048 29.8524C100.798 29.5401 100.673 29.1752 100.673 28.7578C100.673 28.2002 100.878 27.7523 101.287 27.4141C101.697 27.0759 102.238 26.9068 102.911 26.9068C103.449 26.9068 104.057 26.9845 104.732 27.1399V28.2231C104.041 27.9641 103.495 27.8346 103.093 27.8346C102.783 27.8346 102.534 27.9039 102.347 28.0425C102.159 28.1812 102.066 28.3632 102.066 28.5887C102.066 28.7746 102.131 28.9376 102.262 29.0777C102.393 29.2179 102.64 29.39 103.002 29.5942L103.486 29.8638C104.137 30.2294 104.586 30.5661 104.833 30.8739C105.079 31.1816 105.203 31.5564 105.203 31.9982C105.203 32.6258 104.97 33.1179 104.504 33.4744C104.038 33.8309 103.396 34.0091 102.577 34.0091C102.035 34.0091 101.405 33.9329 100.687 33.7806ZM106.408 33.84V28.8218H107.759V33.84H106.408ZM106.408 27.9763V26.8474H107.759V27.9763H106.408ZM112.033 33.8126C111.71 33.907 111.456 33.9542 111.271 33.9542C110.099 33.9542 109.513 33.4058 109.513 32.3089V29.6673H108.951V28.8218H109.513V27.9763L110.864 27.8209V28.8218H111.937V29.6673H110.864V32.1307C110.864 32.7462 111.115 33.0539 111.618 33.0539C111.733 33.0539 111.872 33.0326 112.033 32.9899V33.8126ZM117.32 33.6709C116.678 33.8598 116.069 33.9542 115.494 33.9542C114.657 33.9542 113.996 33.7166 113.512 33.2413C113.028 32.766 112.787 32.117 112.787 31.2943C112.787 30.5174 113.008 29.892 113.451 29.4182C113.894 28.9444 114.479 28.7075 115.206 28.7075C115.94 28.7075 116.476 28.9391 116.814 29.4022C117.151 29.8653 117.32 30.5981 117.32 31.6005H114.211C114.302 32.5573 114.827 33.0356 115.786 33.0356C116.24 33.0356 116.751 32.9305 117.32 32.7203V33.6709ZM114.193 30.8373H115.992C115.992 29.9811 115.716 29.553 115.165 29.553C114.605 29.553 114.281 29.9811 114.193 30.8373ZM118.585 33.68V32.6883C119.255 32.9686 119.827 33.1087 120.302 33.1087C120.856 33.1087 121.133 32.9198 121.133 32.542C121.133 32.2983 120.905 32.085 120.448 31.9022L119.991 31.7194C119.495 31.5183 119.141 31.3019 118.928 31.0704C118.715 30.8388 118.608 30.5524 118.608 30.2112C118.608 29.7358 118.789 29.3664 119.151 29.1029C119.514 28.8393 120.02 28.7075 120.672 28.7075C121.08 28.7075 121.565 28.7669 122.128 28.8858V29.8364C121.586 29.6475 121.137 29.553 120.781 29.553C120.221 29.553 119.941 29.7267 119.941 30.0741C119.941 30.3026 120.148 30.496 120.562 30.6545L120.955 30.8053C121.542 31.0277 121.951 31.2532 122.181 31.4817C122.411 31.7102 122.525 32.0042 122.525 32.3638C122.525 32.836 122.33 33.2192 121.939 33.5132C121.548 33.8072 121.039 33.9542 120.411 33.9542C119.809 33.9542 119.2 33.8628 118.585 33.68Z" fill="white"/>
<defs>
<filter id="filter0_d" x="39.4417" y="0.15332" width="85.508" height="23.9728" filterUnits="userSpaceOnUse" color-interpolation-filters="sRGB">
<feFlood flood-opacity="0" result="BackgroundImageFix"/>
<feColorMatrix in="SourceAlpha" type="matrix" values="0 0 0 0 0 0 0 0 0 0 0 0 0 0 0 0 0 0 127 0"/>
<feOffset dy="1"/>
<feGaussianBlur stdDeviation="1"/>
<feColorMatrix type="matrix" values="0 0 0 0 0 0 0 0 0 0 0 0 0 0 0 0 0 0 0.5 0"/>
<feBlend mode="normal" in2="BackgroundImageFix" result="effect1_dropShadow"/>
<feBlend mode="normal" in="SourceGraphic" in2="effect1_dropShadow" result="shape"/>
</filter>
</defs>
</svg>
