<svg width="80" height="22" viewBox="0 0 80 22" fill="none" xmlns="http://www.w3.org/2000/svg">
<path fill-rule="evenodd" clip-rule="evenodd" d="M1.70506 7.3248C1.70506 7.3248 1.61549 7.88256 1.43635 8.99808C1.28979 9.92632 1.1473 10.4312 1.00887 10.5126C0.951876 10.5533 0.882461 10.5696 0.80124 10.5614C0.793097 10.5614 0.732029 10.5329 0.618034 10.4759C0.55269 10.4434 0.520324 10.3864 0.520324 10.3049C0.520324 10.2805 0.50811 10.248 0.483683 10.2072C0.31269 9.92225 0.18241 9.60062 0.0928429 9.24235C-0.0455794 8.69681 -0.0292945 8.20011 0.141698 7.75228C0.190553 7.61385 0.276049 7.45121 0.398186 7.26373C0.772538 6.66933 1.04124 6.26627 1.20429 6.05457C1.22058 6.0222 1.39544 5.84286 1.72948 5.51716C2.26689 4.9879 2.56002 4.70312 2.60887 4.6622C3.17864 4.19014 3.59391 3.88052 3.85468 3.73396C3.96053 3.67716 4.11523 3.57945 4.3188 3.44083C4.52216 3.31869 4.68114 3.22505 4.79513 3.15991C5.06384 3.01335 5.65803 2.78536 6.57834 2.47594C7.22974 2.26424 7.96256 2.16266 8.77681 2.1706C9.17579 2.1706 9.52979 2.17874 9.83941 2.19503C10.0023 2.20317 10.3359 2.27238 10.8409 2.40266C11.0443 2.45151 11.4638 2.61436 12.0989 2.89121C12.2779 2.97263 12.4489 3.0622 12.6119 3.15991C12.6687 3.20062 12.7463 3.27798 12.844 3.39197C12.8847 3.44083 12.9417 3.51818 13.015 3.62403C13.0883 3.72174 13.1453 3.79503 13.186 3.84388C13.4384 4.14515 13.6135 4.51971 13.7112 4.96754C13.7844 5.2851 13.76 5.78179 13.6379 6.45762C13.6297 6.48205 13.5848 6.57976 13.5035 6.75075C13.4384 6.87289 13.4099 6.92602 13.418 6.90953C13.3936 7.01538 13.2959 7.15788 13.1249 7.33701C12.7259 7.75228 12.4002 8.04134 12.1478 8.20419C11.7244 8.49732 11.3496 8.70088 11.0241 8.81487C10.8776 8.87187 10.6659 8.95329 10.389 9.05915C10.1122 9.17335 9.90842 9.25457 9.77834 9.30342C9.63177 9.35228 9.30607 9.45813 8.80124 9.62098C8.26383 9.79197 7.47788 9.93039 6.44399 10.0362C6.28114 10.0525 5.90251 10.0932 5.30811 10.1584C5.2674 10.3049 5.24704 10.3864 5.24704 10.4027C6.09386 12.9594 7.29467 15.1742 8.85009 17.0469C9.70506 18.089 10.4867 18.8464 11.1951 19.3187C11.4638 19.4976 11.7405 19.6035 12.0257 19.6362C12.4084 19.6686 12.673 19.6808 12.8196 19.6729C13.1939 19.6403 13.6135 19.5098 14.0776 19.282C14.5091 19.0701 14.9325 18.7243 15.3478 18.2439C15.3559 18.2439 15.3924 18.1908 15.4577 18.0851C15.5554 17.9385 15.702 17.8854 15.8974 17.9263C15.9054 17.9263 15.9298 17.9304 15.9707 17.9385V18.0118C16.044 18.1989 15.9788 18.4228 15.7753 18.6836C15.702 18.7813 15.2623 19.2576 14.4562 20.1126C14.1794 20.4057 13.8211 20.6622 13.3814 20.882C13.2755 20.9309 12.9824 21.0325 12.502 21.1874C12.4611 21.2037 12.3147 21.2401 12.0623 21.2973C11.5738 21.403 11.0404 21.3217 10.4623 21.053C8.52439 19.8072 6.94048 17.7592 5.71116 14.9095C5.42597 14.25 4.99462 12.9065 4.41651 10.879C4.23737 11.1153 4.14373 11.2373 4.13559 11.2454C4.08674 11.3187 3.95646 11.5223 3.74475 11.8561C3.59004 12.1004 3.45976 12.2999 3.35391 12.4546C3.26434 12.5848 3.00378 13.0856 2.57223 13.9569C2.5478 14.0057 2.51116 14.1156 2.46231 14.2866C2.28317 14.9136 2.16918 15.3085 2.12032 15.4714C2.07147 15.6749 2.01447 15.9273 1.94933 16.2286C1.95727 16.1962 1.94526 16.3223 1.91269 16.6072C1.91269 16.6154 1.90455 16.6887 1.88826 16.8271C1.69284 16.8434 1.49315 16.8069 1.28979 16.7172C1.23279 16.6927 1.17987 16.6235 1.13101 16.5095C0.927449 16.0943 0.793097 15.5691 0.727957 14.934C0.687245 14.5268 0.67096 14.0668 0.679102 13.5538C0.695387 13.0815 0.870248 12.6133 1.20429 12.1492C1.3588 11.9375 1.58292 11.6485 1.87605 11.282C2.20989 10.8749 2.44195 10.5859 2.57223 10.4149C2.74322 10.1871 3.06485 9.74719 3.53712 9.09579C3.63483 8.95737 3.77732 8.7538 3.9646 8.4851C4.16816 8.20826 4.31452 8.00062 4.40429 7.8622C4.76256 7.37365 5.05976 6.85253 5.2959 6.29884C5.31218 6.25813 5.35269 6.16449 5.41803 6.01793C5.47503 5.90393 5.51574 5.81029 5.54017 5.73701C5.67859 5.36246 5.69081 5.02861 5.57681 4.73548C5.5359 4.62963 5.54424 4.54821 5.60124 4.49121C5.65009 4.42607 5.73559 4.40571 5.85773 4.43014C6.02058 4.46271 6.216 4.57263 6.44399 4.75991C6.7534 5.00419 6.87554 5.3421 6.8104 5.77365C6.68826 6.54719 6.48877 7.22301 6.21193 7.80113C6.17101 7.8907 6.12236 8.01284 6.06536 8.16754C5.99208 8.33039 5.93895 8.44846 5.90658 8.52174C5.88216 8.57874 5.84551 8.65202 5.79666 8.74159C5.73966 8.84744 5.70302 8.92072 5.68674 8.96144L5.65009 9.09579H5.8333C6.77783 8.90851 7.33559 8.79452 7.50658 8.7538C8.1417 8.60724 8.67483 8.39146 9.10658 8.10648C9.22058 8.03319 9.37529 7.9192 9.57071 7.76449C9.79055 7.5935 9.94933 7.47543 10.047 7.41029C10.3157 7.22301 10.5967 6.8851 10.8898 6.39655C11.1015 6.03828 11.2196 5.68408 11.244 5.33396C11.2684 5.04897 11.2641 4.82505 11.2318 4.6622C11.1829 4.3935 11.0565 4.15329 10.8531 3.94159C10.6984 3.7706 10.6089 3.67289 10.5844 3.64846C10.2993 3.37976 9.90455 3.20877 9.39971 3.13548C8.82139 3.05426 8.37783 3.02963 8.06842 3.0622C6.77376 3.21691 6.00429 3.33497 5.76002 3.4164C4.2618 3.90495 3.10149 4.86983 2.2791 6.31106C1.8962 6.98688 1.70506 7.3248 1.70506 7.3248Z" fill="#830F29"/>
<path fill-rule="evenodd" clip-rule="evenodd" d="M16.9843 11.8438C17.0411 11.7949 17.1268 11.8481 17.2408 12.0026C17.2815 12.0679 17.2123 12.2878 17.0331 12.6621C16.8133 13.1183 16.5161 13.4766 16.1415 13.7369C15.612 14.0954 15.0952 14.2664 14.5904 14.2499C14.2728 14.7385 13.8494 15.2351 13.3201 15.74C12.5873 16.4404 11.9766 16.8311 11.4881 16.9125C11.0728 16.9858 10.6575 16.9369 10.2423 16.7659C9.63159 16.5137 9.28961 16.1797 9.21632 15.7644C9.12676 15.2679 9.1636 14.6896 9.32625 14.0301C9.52167 13.2321 9.86772 12.5278 10.3644 11.9171C11.5776 10.4353 12.5385 9.63311 13.2469 9.51097C13.7922 9.41326 14.1995 9.64532 14.4682 10.2072C14.5578 10.3946 14.6189 10.5901 14.6514 10.7934C14.684 10.9809 14.6881 11.0703 14.6637 11.0621C14.0611 10.8099 13.4341 10.9565 12.7827 11.5018C12.2616 11.9336 11.7812 12.5644 11.3415 13.3949C10.967 14.201 10.743 14.9056 10.6698 15.5079C10.6288 15.858 10.7675 16.082 11.085 16.1797C11.3293 16.253 11.5571 16.2491 11.769 16.1675C12.2168 16.0046 12.799 15.4878 13.5156 14.6163C13.6377 14.4697 13.7517 14.3232 13.8575 14.1766C13.5237 14.1117 13.3037 13.8835 13.198 13.4927C13.1329 13.216 13.2143 12.9308 13.4423 12.6377C13.6784 12.3366 13.9512 12.1778 14.2606 12.1614C14.5782 12.1534 14.8059 12.2957 14.9446 12.5888V12.601C14.9609 12.6336 14.9771 12.6664 14.9934 12.6988C15.0097 12.7397 15.0219 12.7843 15.0301 12.8331C15.038 12.8903 15.0423 12.9107 15.0423 12.8942C15.0504 12.9512 15.0545 13.0163 15.0545 13.0896V13.1751C15.0545 13.2484 15.0464 13.3094 15.0301 13.3583V13.3705C15.0136 13.4766 14.9934 13.558 14.969 13.6148L14.9568 13.627V13.6392C15.1929 13.6229 15.3883 13.5865 15.543 13.5293C15.885 13.3992 16.17 13.1427 16.398 12.7598C16.7724 12.1656 16.9678 11.8603 16.9843 11.8438Z" fill="#830F29"/>
<path fill-rule="evenodd" clip-rule="evenodd" d="M26.7552 11.9293C26.8692 11.7504 26.9913 11.6606 27.1216 11.6606C27.2516 11.6526 27.2803 11.7666 27.2071 12.0026C26.9384 12.8007 26.2625 13.7778 25.1796 14.9339C25.1142 14.9992 24.9516 15.1781 24.691 15.4713C24.4956 15.6832 24.3409 15.8458 24.2269 15.9598C23.9419 16.2369 23.6814 16.4649 23.4452 16.6438C23.2498 16.7985 23.087 16.8881 22.9567 16.9125C22.3134 17.0346 21.9063 16.8313 21.7353 16.3018C21.6295 15.9843 21.6132 15.6178 21.6865 15.2026C21.7679 14.7873 22.3745 13.7168 23.5063 11.9904C23.3923 12.0392 23.2132 12.1614 22.9689 12.3568C22.7246 12.5522 22.4437 12.7924 22.1261 13.0774C21.8004 13.3705 21.4666 13.6801 21.1246 14.0056C20.7826 14.3397 20.4569 14.6611 20.1475 14.9705C20.0172 15.101 19.8055 15.4102 19.5124 15.8988C19.1704 16.4606 19.0157 16.7171 19.0483 16.6682C18.9017 16.8636 18.7753 16.9453 18.6697 16.9125C18.5638 16.8718 18.4822 16.7863 18.4254 16.656C18.1404 15.972 18.0264 15.5855 18.0834 15.4957C18.1241 15.4308 18.2055 15.3168 18.3277 15.1537C18.4498 14.9827 18.5964 14.7751 18.7674 14.5308C19.5735 13.3748 20.1066 12.597 20.3674 12.198C20.5139 11.9863 20.6318 11.8031 20.7216 11.6484C20.2412 12.0557 19.7323 12.5115 19.1949 13.0163C19.1704 13.0407 18.3358 13.9855 16.691 15.8499C16.3326 16.2652 16.0763 16.5909 15.9216 16.827C15.8646 16.9247 15.7831 16.9573 15.6773 16.9247C15.5714 16.8923 15.4737 16.827 15.3842 16.7293C15.3679 16.713 15.3516 16.6886 15.3353 16.656C15.0015 16.3385 14.7816 15.9965 14.6758 15.6301C14.6678 15.5893 15.5265 14.1481 17.2529 11.3064C17.7738 10.4514 18.2055 9.71474 18.5475 9.0957C18.873 9.22619 19.089 9.63738 19.1949 10.3293C19.2681 10.8178 18.9829 11.5468 18.3399 12.5156C18.234 12.711 18.0997 12.9473 17.9368 13.2239C17.7658 13.5091 17.6639 13.6801 17.6315 13.7369C17.786 13.5496 17.9814 13.3137 18.2178 13.0285C18.4539 12.7519 18.6982 12.4667 18.9506 12.1736C19.1867 11.8969 19.4432 11.6038 19.72 11.2942C19.9806 11.001 20.2287 10.7407 20.4651 10.5125C20.7012 10.2764 20.9127 10.0809 21.1002 9.92624C21.2875 9.76339 21.43 9.66975 21.5277 9.64532C21.6742 9.61296 21.8086 9.64532 21.9307 9.74303C22.0608 9.84074 22.1628 9.97102 22.2361 10.1339C22.3094 10.2886 22.3623 10.4476 22.3949 10.6102C22.4193 10.7649 22.4152 10.8871 22.3826 10.9766C22.3417 11.0582 22.2239 11.2537 22.0284 11.5629C21.8249 11.8725 21.6091 12.198 21.3811 12.54C21.1043 12.9473 20.803 13.3827 20.4773 13.8468C21.1938 13.0489 21.8532 12.3161 22.4559 11.6484C22.7083 11.3797 22.9608 11.111 23.2132 10.8423C23.4493 10.5901 23.6814 10.3458 23.9094 10.1094C24.1211 9.8896 24.3043 9.71066 24.459 9.57204C24.6137 9.42547 24.7195 9.33998 24.7765 9.31555C24.9066 9.2667 25.033 9.29112 25.1552 9.38883C25.2773 9.4786 25.3831 9.60074 25.4727 9.75525C25.5541 9.91016 25.6028 10.0728 25.6193 10.2438C25.6272 10.4231 25.5906 10.5736 25.5094 10.6957C25.4196 10.8016 25.2814 10.9931 25.0941 11.2697C24.9066 11.5385 24.7032 11.8481 24.4834 12.198C24.2554 12.5483 24.0274 12.9107 23.7994 13.285C23.5714 13.6679 23.372 14.026 23.201 14.3598C23.03 14.6857 22.8956 14.9664 22.7979 15.2026C22.7165 15.4063 22.6839 15.5812 22.7002 15.7278C22.7246 15.9641 22.8183 16.0415 22.9811 15.9598C23.5999 15.6667 24.3775 14.9827 25.3139 13.9079C25.7943 13.3626 26.2747 12.703 26.7552 11.9293Z" fill="#830F29"/>
<path fill-rule="evenodd" clip-rule="evenodd" d="M34.4253 11.7828C34.5475 11.8642 34.5393 12.0149 34.4009 12.2347C32.3897 15.3779 30.9607 16.9492 30.1139 16.9492C29.8615 16.9492 29.6088 16.7864 29.3566 16.4607C29.1368 16.1675 29.0268 15.9151 29.0268 15.7034V15.6179C28.1719 16.4484 27.5449 16.8637 27.1459 16.8637C26.8039 16.8637 26.4821 16.7334 26.181 16.4729C25.7332 16.0902 25.5093 15.6668 25.5093 15.2026C25.5093 13.8998 26.006 12.6703 26.9994 11.5141C28.1963 10.1217 29.1571 9.42554 29.8818 9.42554C30.2401 9.42554 30.5414 9.67795 30.7856 10.1828C30.8833 10.3703 30.9444 10.537 30.9688 10.6836C31.0014 10.9604 31.0095 11.0909 30.9933 11.0744C30.5536 10.6917 30.008 10.7772 29.3566 11.3309C28.8518 11.7624 28.347 12.3978 27.8421 13.2362C27.492 13.9039 27.2518 14.6123 27.1215 15.3614C27.0727 15.6057 27.0928 15.797 27.1826 15.9355C27.2559 16.0495 27.3576 16.1065 27.4879 16.1065C27.9276 16.1065 28.5139 15.6668 29.2467 14.7874C29.2548 14.7794 29.263 14.7711 29.2711 14.7629C29.377 14.5675 29.5154 14.25 29.6864 13.8103C29.833 13.395 29.9836 13.0207 30.1383 12.6866C30.35 12.2145 30.5169 11.7871 30.6391 11.4042C30.7205 11.4286 30.7978 11.4612 30.8711 11.5019C31.4737 11.8194 31.6528 12.4222 31.4085 13.3095C31.3432 13.5701 31.2172 13.9161 31.0299 14.3477C30.8589 14.7711 30.7569 15.0357 30.7246 15.1416C30.6594 15.2802 30.5943 15.4469 30.5291 15.6423C30.464 15.8622 30.4355 15.9642 30.4436 15.9477C30.3785 16.1187 30.3948 16.2042 30.4925 16.2042C30.6961 16.2042 31.2009 15.7319 32.007 14.7874C32.805 13.8268 33.4971 12.8739 34.0833 11.9294C34.189 11.7584 34.3032 11.7095 34.4253 11.7828Z" fill="#830F29"/>
<path fill-rule="evenodd" clip-rule="evenodd" d="M40.8865 11.9171C41.0005 11.7381 41.1227 11.6484 41.2529 11.6484C41.383 11.6404 41.4117 11.7544 41.3384 11.9904C41.0697 12.7804 40.3939 13.7575 39.311 14.9217C39.2456 14.987 39.083 15.1619 38.8224 15.4468C38.627 15.6667 38.4764 15.8338 38.3705 15.9476C38.0774 16.2247 37.8166 16.4526 37.5888 16.6316C37.3853 16.7863 37.2181 16.8758 37.0881 16.9003C36.4448 17.0224 36.0377 16.8191 35.8667 16.2896C35.7608 15.972 35.7486 15.6056 35.83 15.1904C35.9033 14.7751 36.5059 13.7003 37.6377 11.9659C37.5318 12.0231 37.3527 12.1491 37.1003 12.3446V12.3323C36.6199 12.7476 36.3512 12.9797 36.2942 13.0285C36.2777 13.045 35.4433 13.9895 33.7904 15.8621C33.4239 16.2774 33.1675 16.6033 33.0209 16.8392C32.9639 16.9369 32.8825 16.9695 32.7766 16.9369C32.6708 16.9046 32.573 16.8392 32.4835 16.7415C32.4672 16.7254 32.4468 16.7049 32.4224 16.6804C32.0967 16.3549 31.8809 16.0087 31.7751 15.6423C31.7671 15.6018 32.6258 14.1605 34.3522 11.3186C34.8652 10.4718 35.2967 9.73509 35.6468 9.10791C35.9723 9.24654 36.1883 9.6618 36.2942 10.3537C36.3675 10.8423 36.0823 11.5671 35.4392 12.5278C35.3334 12.7232 35.199 12.9595 35.0362 13.2362C34.8652 13.5213 34.7632 13.6923 34.7308 13.7491C34.8937 13.5537 35.0891 13.3176 35.3171 13.0407C35.5532 12.7641 35.7975 12.4789 36.0499 12.1858C36.1395 12.0801 36.4082 11.7909 36.856 11.3186C37.3364 10.8221 37.6133 10.5331 37.6865 10.4514V10.4758C37.8087 10.3458 37.9265 10.2194 38.0407 10.0972C38.2524 9.86944 38.4356 9.6903 38.5904 9.55982C38.7449 9.41325 38.8509 9.32776 38.9079 9.30333C39.038 9.25448 39.1644 9.27503 39.2865 9.3644C39.4087 9.46211 39.5145 9.58852 39.6041 9.74302C39.6855 9.88959 39.7344 10.0526 39.7507 10.2316C39.7586 10.4109 39.7222 10.5613 39.6407 10.6835C39.551 10.7893 39.4127 10.9809 39.2255 11.2575C39.0463 11.5262 38.8426 11.8358 38.6148 12.1858C38.3949 12.5361 38.171 12.8984 37.943 13.2728C37.715 13.6557 37.5113 14.0138 37.3323 14.3476C37.1613 14.6735 37.027 14.9542 36.9293 15.1904C36.8479 15.3941 36.8153 15.569 36.8316 15.7155C36.856 15.9437 36.9496 16.0209 37.1125 15.9476C37.7313 15.6545 38.5089 14.9705 39.4453 13.8957C39.9257 13.3504 40.4061 12.6908 40.8865 11.9171Z" fill="#830F29"/>
<path fill-rule="evenodd" clip-rule="evenodd" d="M41.9247 12.9309C41.9247 12.9309 41.77 13.3095 41.4606 14.0668C41.3708 14.2706 41.3181 14.5798 41.3018 14.995C41.2853 15.2802 41.3507 15.5123 41.4972 15.6912C41.652 15.8787 41.8716 15.9355 42.1568 15.8622C42.4011 15.8054 42.6331 15.6874 42.8532 15.508C43.2355 15.1825 43.6346 14.8039 44.0499 14.3721C45.0594 13.3055 45.6538 12.5606 45.8331 12.137C45.9715 11.8278 46.1181 11.7095 46.2728 11.7828C46.5334 11.905 45.9754 12.7683 44.5995 14.3721C44.0377 15.0317 43.6916 15.4268 43.5614 15.5569C43.138 15.9642 42.7876 16.2775 42.511 16.4973C42.2423 16.7092 41.9082 16.8558 41.5095 16.937C41.2896 16.9777 41.0738 16.937 40.8621 16.8149C40.4876 16.6115 40.2677 16.465 40.2026 16.3752C39.4779 15.3574 39.5351 14.0751 40.3736 12.5279C40.8296 11.6894 41.4117 10.9156 42.1201 10.2073C42.4296 9.89804 42.7675 9.66985 43.1339 9.52328C43.6876 9.2955 44.1189 9.37285 44.4285 9.75534C44.9415 10.3742 45.1492 11.0011 45.0514 11.6363C45.0189 11.8805 44.8682 12.1615 44.5995 12.479C44.3143 12.8291 44.1189 13.094 44.0133 13.2729L43.7324 13.737C43.5288 13.8024 43.3659 13.7004 43.2438 13.4317C43.1705 13.269 43.1255 13.1019 43.1095 12.9309C43.1011 12.8088 43.1174 12.7111 43.1585 12.6378C43.37 12.239 43.4799 11.9703 43.4881 11.8317C43.5044 11.6283 43.4514 11.4207 43.3293 11.2088C43.2072 10.9889 43.1054 10.924 43.024 11.0134C42.8611 11.1764 42.5761 11.6527 42.169 12.4424C42.0059 12.7683 41.9247 12.9309 41.9247 12.9309Z" fill="#830F29"/>
<path fill-rule="evenodd" clip-rule="evenodd" d="M46.5538 14.0668C46.4642 14.2787 46.4113 14.5881 46.3952 14.995C46.3787 15.2882 46.4438 15.5245 46.5906 15.7034C46.7449 15.8826 46.965 15.9398 47.25 15.8744C47.4942 15.8176 47.7265 15.6955 47.9463 15.508C48.3288 15.1905 48.728 14.8118 49.1433 14.3721C50.1528 13.3055 50.7472 12.5645 50.9263 12.1492C51.0647 11.8317 51.2113 11.7095 51.3662 11.7828C51.6265 11.9131 51.0688 12.7764 49.6927 14.3721C48.6993 15.5367 48.0031 16.2492 47.6042 16.5095C47.2133 16.7538 46.8795 16.8963 46.6026 16.937C46.3584 16.9777 46.0899 16.9248 45.7965 16.7782C45.5604 16.6561 45.3937 16.526 45.2958 16.3874C44.5713 15.3696 44.6283 14.0874 45.4667 12.5401C45.9227 11.6933 46.5051 10.9157 47.2133 10.2073C47.5227 9.90619 47.8606 9.67799 48.2273 9.52328C48.7807 9.30344 49.2123 9.38099 49.5217 9.75535C50.108 10.4637 50.3156 11.0909 50.1448 11.6363C49.998 12.1413 49.5665 12.7805 48.85 13.5538C47.9543 14.523 47.0708 15.052 46.1998 15.1416C46.0611 15.1581 45.9227 15.1133 45.7845 15.0073C45.6377 14.9016 45.6945 14.8363 45.9555 14.8118C46.5495 14.763 47.14 14.4171 47.7265 13.7737C48.2067 13.2607 48.6138 12.6461 48.9479 11.9294C49.0777 11.6446 49.0454 11.3393 48.85 11.0134C48.6708 10.7039 48.5283 10.6024 48.4227 10.708C48.0561 11.0826 47.6693 11.665 47.2622 12.4546C47.0993 12.7805 46.8634 13.3177 46.5538 14.0668Z" fill="#830F29"/>
<path fill-rule="evenodd" clip-rule="evenodd" d="M71.4453 5.90789C70.4437 6.33965 69.4911 6.53507 68.5872 6.49415C67.3416 6.43736 66.2096 6.18087 65.1918 5.72469C65.1348 5.69232 65.1226 5.68397 65.1554 5.70026C65.1307 5.72469 65.1063 5.74525 65.0819 5.76133C63.9094 7.05599 63.1603 8.00072 62.8346 8.59492C62.4682 9.15675 62.1508 9.8285 61.8821 10.6102C61.841 10.7244 61.7679 10.9155 61.662 11.1842C61.5643 11.4285 61.4913 11.6239 61.4422 11.7705C61.1816 12.5766 60.9661 13.3625 60.7951 14.1277C60.7625 14.2827 60.7096 14.5229 60.6361 14.8484C60.5547 15.1659 60.4977 15.4063 60.4653 15.569C60.4732 15.5366 60.4407 15.7603 60.3674 16.2407C60.3023 16.6399 60.2412 17.0183 60.1844 17.3766C60.16 17.515 60.1353 17.6453 60.1109 17.7674C60.0702 17.9466 59.9806 18.0402 59.8422 18.0484C59.728 18.0565 59.6224 17.9952 59.5246 17.8651C59.5082 17.8326 59.4882 17.7876 59.4638 17.7308C59.4393 17.6575 59.4188 17.6087 59.4027 17.5842C59.3618 17.5109 59.2559 17.3196 59.0849 17.0102C58.9547 16.7741 58.8488 16.5827 58.7676 16.4361C58.5966 16.1106 58.3643 15.8377 58.0714 15.6178C57.9572 15.5366 57.9328 15.4267 57.9979 15.288C58.2013 14.7916 58.4783 13.9567 58.8287 12.7842C59.1542 11.7015 59.4473 10.8709 59.7081 10.2926C60.4162 8.76204 61.316 7.39003 62.4073 6.1766C62.7409 5.80224 63.2539 5.37863 63.946 4.90637C61.7231 3.26179 60.1638 2.17476 59.2684 1.6453C58.2424 1.03461 57.3099 0.945247 56.4712 1.3766C55.8931 1.67807 55.4575 2.13385 55.1645 2.74453C55.0911 2.8911 55.0341 3.23736 54.9935 3.7827C54.9201 4.72744 55.2498 5.61476 55.9827 6.4453C56.9516 7.54453 57.5175 8.30179 57.6806 8.71705C57.9654 9.44988 58.059 10.085 57.9615 10.6224C57.8959 11.0053 57.7903 11.2251 57.6437 11.2819C57.5379 11.3308 57.4562 11.3106 57.3995 11.2209C57.3913 11.1964 57.3628 11.1354 57.314 11.0377C57.2244 10.8587 57.0819 10.6346 56.8865 10.3659C56.6501 10.0484 56.4958 9.8285 56.4224 9.70637C56.4386 9.73079 56.2188 9.40937 55.7628 8.74148C55.3638 8.16357 55.0341 7.62209 54.7737 7.11705C53.9511 5.52927 53.7192 4.14118 54.0775 2.95217C54.1019 2.88723 54.1669 2.70403 54.2729 2.40255C54.4437 1.92214 54.8101 1.42973 55.372 0.924687C55.9012 0.452626 56.7114 0.212423 57.8025 0.204077C58.9587 0.187792 59.9725 0.452626 60.8437 0.99797C62.5536 2.0567 64.9679 3.43665 68.0865 5.13843C68.8763 5.57018 69.7557 5.62311 70.7246 5.29721C71.4738 5.03685 71.946 4.75186 72.1414 4.44224L72.3002 4.51553C72.805 4.97171 72.5201 5.43583 71.4453 5.90789Z" fill="#830F29"/>
<path fill-rule="evenodd" clip-rule="evenodd" d="M70.8101 11.7828C70.9324 11.8642 70.9241 12.0149 70.7857 12.2347C68.7745 15.3779 67.3453 16.9492 66.4986 16.9492C66.2462 16.9492 65.9938 16.7864 65.7416 16.4607C65.5218 16.1675 65.4116 15.9151 65.4116 15.7034V15.6179C64.5567 16.4484 63.9295 16.8637 63.5307 16.8637C63.1889 16.8637 62.8669 16.7334 62.5658 16.4729C62.118 16.0902 61.8941 15.6668 61.8941 15.2026C61.8941 13.8998 62.3908 12.6703 63.3843 11.5141C64.5811 10.1217 65.5417 9.42554 66.2668 9.42554C66.6247 9.42554 66.9261 9.67795 67.1704 10.1828C67.2683 10.3703 67.3292 10.537 67.3538 10.6836C67.3862 10.9604 67.3943 11.0909 67.3782 11.0744C66.9383 10.6917 66.3928 10.7772 65.7416 11.3309C65.2364 11.7624 64.7317 12.3978 64.2269 13.2362C63.8766 13.9039 63.6366 14.6123 63.5063 15.3614C63.4574 15.6057 63.4776 15.797 63.5673 15.9355C63.6406 16.0495 63.7424 16.1065 63.8727 16.1065C64.3124 16.1065 64.8986 15.6668 65.6317 14.7874C65.6396 14.7794 65.6478 14.7711 65.6561 14.7629C65.7615 14.5675 65.9002 14.25 66.0712 13.8103C66.2177 13.395 66.3684 13.0207 66.5231 12.6866C66.7346 12.2145 66.9017 11.7871 67.0238 11.4042C67.1053 11.4286 67.1828 11.4612 67.2559 11.5019C67.8584 11.8194 68.0376 12.4222 67.7935 13.3095C67.728 13.5701 67.602 13.9161 67.4147 14.3477C67.2437 14.7711 67.1417 15.0357 67.1093 15.1416C67.0442 15.2802 66.9791 15.4469 66.9139 15.6423C66.8488 15.8622 66.8201 15.9642 66.8284 15.9477C66.7631 16.1187 66.7796 16.2042 66.8775 16.2042C67.0808 16.2042 67.5857 15.7319 68.3918 14.7874C69.1897 13.8268 69.8819 12.8739 70.4681 11.9294C70.574 11.7584 70.688 11.7095 70.8101 11.7828Z" fill="#830F29"/>
<path fill-rule="evenodd" clip-rule="evenodd" d="M75.097 7.20275C75.1703 7.01547 75.1459 6.81191 75.024 6.59206C74.9098 6.36407 74.7998 6.34371 74.6942 6.53099C74.5393 6.81618 74.3968 7.08875 74.2665 7.34931C74.0792 7.74829 73.2894 9.33608 71.897 12.1127C72.4833 11.4208 73.0085 10.7244 73.4728 10.0241C74.0668 9.12845 74.4133 8.59104 74.5108 8.41191C74.812 7.85008 75.0075 7.44702 75.097 7.20275ZM71.3354 13.2363L70.065 15.7279C70.0405 15.8826 70.069 16.0292 70.1505 16.1676C70.3215 16.3223 70.6227 16.2531 71.0545 15.96C71.4453 15.6913 71.8441 15.3127 72.2514 14.8241C73.0409 13.8635 73.7291 12.9108 74.3154 11.9661C74.4133 11.8033 74.5556 11.7788 74.743 11.8928C74.7917 11.9254 74.8041 11.9702 74.7795 12.0272C74.7874 12.0192 74.7386 12.0964 74.6331 12.2592C73.4034 14.2053 72.4385 15.4959 71.7383 16.131C70.7204 17.0592 69.7881 17.1854 68.9415 16.5096C68.4283 16.1025 68.6117 15.1335 69.4909 13.6027C69.9713 12.7559 70.5126 11.734 71.1154 10.5371C71.2619 10.2277 71.6365 9.42158 72.239 8.11878C72.7276 7.05211 73.1064 6.27857 73.3749 5.79817C73.5785 5.42382 73.6927 5.22005 73.7171 5.18748C73.8225 5.04906 73.953 4.97191 74.1079 4.95542C74.409 4.88214 74.7386 5.07756 75.097 5.54168C75.3657 5.89181 75.5408 6.19715 75.6222 6.45771C75.7034 6.71847 75.7403 6.94626 75.7322 7.14168C75.7077 7.41038 75.6019 7.72794 75.4148 8.09435C75.2273 8.46076 74.9995 8.84753 74.7306 9.25466C74.4619 9.66198 74.1688 10.0773 73.8512 10.5005C73.5337 10.9157 73.2324 11.2986 72.9474 11.6485C72.923 11.6811 72.5769 12.0231 71.9093 12.6745C71.7138 12.8699 71.5225 13.0574 71.3354 13.2363Z" fill="#830F29"/>
<path fill-rule="evenodd" clip-rule="evenodd" d="M75.0116 14.0668C74.922 14.2787 74.8691 14.5881 74.853 14.995C74.8365 15.2882 74.9016 15.5245 75.0484 15.7034C75.2027 15.8826 75.4228 15.9398 75.7077 15.8744C75.952 15.8176 76.1843 15.6955 76.4041 15.508C76.7866 15.1905 77.1858 14.8118 77.6011 14.3721C78.6105 13.3055 79.2049 12.5645 79.3841 12.1492C79.5225 11.8317 79.6691 11.7095 79.824 11.7828C80.0843 11.9131 79.5266 12.7764 78.1505 14.3721C77.1571 15.5367 76.4609 16.2492 76.0619 16.5095C75.6711 16.7538 75.3373 16.8963 75.0604 16.937C74.8161 16.9777 74.5476 16.9248 74.2543 16.7782C74.0182 16.6561 73.8515 16.526 73.7535 16.3874C73.0291 15.3696 73.0861 14.0874 73.9245 12.5401C74.3805 11.6933 74.9629 10.9157 75.6711 10.2073C75.9805 9.90619 76.3184 9.67799 76.685 9.52328C77.2385 9.30344 77.6701 9.38099 77.9795 9.75535C78.5658 10.4637 78.7734 11.0909 78.6026 11.6363C78.4558 12.1413 78.0243 12.7805 77.3077 13.5538C76.4121 14.523 75.5286 15.052 74.6576 15.1416C74.5189 15.1581 74.3805 15.1133 74.2423 15.0073C74.0955 14.9016 74.1523 14.8363 74.4133 14.8118C75.0073 14.763 75.5978 14.4171 76.1843 13.7737C76.6645 13.2607 77.0716 12.6461 77.4057 11.9294C77.5355 11.6446 77.5032 11.3393 77.3077 11.0134C77.1286 10.7039 76.9861 10.6024 76.8805 10.708C76.5139 11.0826 76.1271 11.665 75.72 12.4546C75.5571 12.7805 75.3212 13.3177 75.0116 14.0668Z" fill="#830F29"/>
</svg>
