<svg width="64" height="40" viewBox="0 0 64 40" fill="none" xmlns="http://www.w3.org/2000/svg">
<path fill-rule="evenodd" clip-rule="evenodd" d="M5.88413 31.2L3.6 38.3056L1.31587 31.2H0L2.74501 39.5765C2.874 39.9265 3.07334 40 3.21802 40H3.95932C4.11414 40 4.3258 39.9265 4.45657 39.5718L7.2 31.2H5.88413Z" fill="#274655"/>
<path fill-rule="evenodd" clip-rule="evenodd" d="M11.9619 36.4605H9.63791L10.7999 32.8926L11.9619 36.4605ZM11.106 31.2H10.4711C10.3253 31.2 10.1239 31.2734 9.99214 31.6279L7.2 40H8.49458L9.26542 37.6236H12.3346L13.1052 40H14.4L11.6063 31.6232C11.4757 31.2734 11.262 31.2 11.106 31.2Z" fill="#274655"/>
<path fill-rule="evenodd" clip-rule="evenodd" d="M17.3294 37.9578V31.2H16V37.9565C16 39.3126 16.7099 40 18.1102 40H21.6V38.7793H18.1102C17.5774 38.7793 17.3294 38.5184 17.3294 37.9578Z" fill="#274655"/>
<path fill-rule="evenodd" clip-rule="evenodd" d="M22.4 33.1484V38.0531C22.4165 39.345 23.0895 40 24.4006 40H28V38.8369H24.4006C23.8985 38.8369 23.6748 38.6125 23.6748 38.109V36.2851H27.2869V35.0647H23.6748V33.1258C23.6748 32.5982 23.8985 32.3628 24.4006 32.3628H28V31.2H24.4006C23.0895 31.2 22.4165 31.8549 22.4 33.1484Z" fill="#274655"/>
<path fill-rule="evenodd" clip-rule="evenodd" d="M34.7308 37.9444L31.4071 31.5701C31.3334 31.4013 31.1664 31.2 30.79 31.2H29.9081C29.8155 31.2 29.6 31.2404 29.6 31.614V40H30.8692V33.2205L34.1712 39.5518C34.3076 39.845 34.5601 40 34.9016 40H35.6917C35.7641 40 36 39.9718 36 39.6082V31.2H34.7308V37.9444Z" fill="#274655"/>
<path fill-rule="evenodd" clip-rule="evenodd" d="M36.8 32.3629H39.4796V40H40.7221V32.3629H43.2V31.2H36.8V32.3629Z" fill="#274655"/>
<mask id="mask0" mask-type="alpha" maskUnits="userSpaceOnUse" x="0" y="0" width="64" height="40">
<path fill-rule="evenodd" clip-rule="evenodd" d="M0 40H64V0H0V40Z" fill="white"/>
</mask>
<g mask="url(#mask0)">
<path fill-rule="evenodd" clip-rule="evenodd" d="M44.8 40H46.4V31.2H44.8V40Z" fill="#274655"/>
<path fill-rule="evenodd" clip-rule="evenodd" d="M56.4972 31.2H55.5179C55.148 31.2 54.9839 31.4005 54.906 31.5836L52.8053 38.4962L50.6884 31.5687C50.6157 31.4005 50.4514 31.2 50.0819 31.2H49.1028C49.0117 31.2 48.8 31.2401 48.8 31.6123V40H50.0471V33.5088L51.953 39.5593C52.0892 39.8515 52.3533 40 52.738 40H52.8618C53.2465 40 53.5106 39.8515 53.6536 39.5424L55.5527 33.5094V40H56.8V31.6123C56.8 31.2401 56.5883 31.2 56.4972 31.2Z" fill="#274655"/>
<path fill-rule="evenodd" clip-rule="evenodd" d="M60.4004 32.3629H64V31.2H60.4004C59.0893 31.2 58.4163 31.8549 58.4 33.1485V38.0533C58.4163 39.345 59.0893 40 60.4004 40H64V38.837H60.4004C59.8985 38.837 59.6748 38.6125 59.6748 38.1092V36.2852H63.2869V35.0645H59.6748V33.1256C59.6748 32.5981 59.8985 32.3629 60.4004 32.3629Z" fill="#274655"/>
<path fill-rule="evenodd" clip-rule="evenodd" d="M40.537 6.54044C40.5428 7.67127 39.9504 10.1996 36.0593 14.7073V10.2147C34.3687 9.85751 33.0946 8.32907 33.0946 6.50283C33.0946 4.41274 34.7633 2.71232 36.8159 2.71232C38.8681 2.71232 40.5374 4.41274 40.5374 6.50283C40.5374 6.51543 40.5366 6.52783 40.5366 6.54023L40.537 6.54044ZM29.7063 16.7801L30.7477 13.588C30.1779 13.3943 29.7649 12.8469 29.7649 12.2021C29.7649 11.3963 30.4084 10.7405 31.1999 10.7405C31.991 10.7405 32.635 11.3963 32.635 12.2021C32.635 12.8469 32.2225 13.3943 31.6519 13.588L32.6935 16.7801H29.7063ZM26.3405 10.2147V14.7073C22.4496 10.1996 21.8568 7.67127 21.863 6.54044L21.8634 6.54023C21.8634 6.52783 21.8626 6.51543 21.8626 6.50283C21.8626 4.41274 23.5318 2.71232 25.5841 2.71232C27.6359 2.71232 29.3055 4.41274 29.3055 6.50283C29.3055 8.32907 28.031 9.85751 26.3405 10.2147ZM43.1995 6.44368C43.1839 4.71989 42.5138 3.10201 41.3127 1.88702C40.1089 0.670001 38.5121 0 36.8159 0C35.2902 0 33.8135 0.556979 32.6574 1.56869C32.061 2.09091 31.5689 2.7168 31.1999 3.41058C30.8313 2.7168 30.3387 2.09091 29.742 1.56869C28.5867 0.556979 27.1098 0 25.5841 0C23.8881 0 22.2911 0.670001 21.0875 1.88702C19.8844 3.10302 19.2145 4.72314 19.2009 6.44185C19.2009 6.44185 19.1997 6.52539 19.2001 6.53779C19.1775 13.1589 30.2882 22.4444 30.7618 22.8365L31.1999 23.2L31.6384 22.8365C32.1113 22.4444 43.2222 13.1593 43.1999 6.53779C43.2003 6.52621 43.1995 6.44368 43.1995 6.44368Z" fill="#E8573A"/>
</g>
</svg>
